<svg width="19.000000" height="18.000000" viewBox="0 0 19 18" fill="none" xmlns="http://www.w3.org/2000/svg" xmlns:xlink="http://www.w3.org/1999/xlink">
	<desc>
			Created with Pixso.
	</desc>
	<defs/>
	<path id="Star 1" d="M7.43 0.35L5.99 3.44C5.74 3.98 5.23 4.35 4.64 4.42L1.26 4.84C-0.2 5.01 -0.78 6.81 0.29 7.81L2.78 10.13C3.22 10.54 3.41 11.14 3.3 11.73L2.65 15.07C2.37 16.51 3.9 17.62 5.18 16.91L8.16 15.26C8.68 14.97 9.31 14.97 9.83 15.26L12.81 16.91C14.09 17.62 15.62 16.51 15.34 15.07L14.69 11.73C14.58 11.14 14.77 10.54 15.21 10.13L17.7 7.81C18.77 6.81 18.19 5.01 16.73 4.84L13.35 4.42C12.76 4.35 12.25 3.98 12 3.44L10.56 0.35C9.94 -0.98 8.05 -0.98 7.43 0.35Z" fill="#FFB547" fill-opacity="1.000000" fill-rule="evenodd"/>
</svg>
